<svg width="22" height="39" viewBox="0 0 22 39" fill="none" xmlns="http://www.w3.org/2000/svg">
<path d="M20.2585 0.0340576H15.3751C9.85124 0.0340576 6.24872 3.75208 6.24872 9.49077V13.8554H1.28524C0.88496 13.8554 0.48468 14.1787 0.48468 14.6637V20.9682C0.48468 21.3723 0.804904 21.7764 1.28524 21.7764H6.24872V37.6993C6.24872 38.1034 6.56894 38.5075 7.04928 38.5075H13.5338C13.9341 38.5075 14.3344 38.1842 14.3344 37.6993V21.6956H20.0984C20.4987 21.6956 20.899 21.3723 20.899 20.8873V14.5829C20.899 14.3404 20.8189 14.1787 20.6588 14.0171C20.4987 13.8554 20.3386 13.7746 20.0984 13.7746H14.3344V10.0566C14.3344 8.27837 14.7347 7.38928 17.0563 7.38928H20.3386C20.7389 7.38928 21.1391 7.06598 21.1391 6.58102V0.842324C20.979 0.357364 20.6588 0.0340576 20.2585 0.0340576Z" fill="white"/>
</svg>
