<svg width="43" height="43" viewBox="0 0 43 43" fill="none" xmlns="http://www.w3.org/2000/svg">
<path d="M30.7536 0.90802H12.1749C5.90602 0.90802 0.662964 6.08648 0.662964 12.5308V31.2883C0.662964 37.6175 5.79204 42.911 12.1749 42.911H30.7536C37.0224 42.911 42.2655 37.7325 42.2655 31.2883V12.5308C42.1515 6.08648 37.0224 0.90802 30.7536 0.90802ZM38.5042 31.2883C38.5042 35.6612 34.9708 39.1135 30.7536 39.1135H12.1749C7.84367 39.1135 4.42429 35.5461 4.42429 31.2883V12.5308C4.42429 8.15786 7.95765 4.70554 12.1749 4.70554H30.7536C35.0848 4.70554 38.5042 8.27293 38.5042 12.5308V31.2883Z" fill="white"/>
<path d="M21.4072 11.0346C15.4803 11.0346 10.6932 15.8678 10.6932 21.8518C10.6932 27.8358 15.4803 32.669 21.4072 32.669C27.3342 32.669 32.1213 27.8358 32.1213 21.8518C32.1213 15.8678 27.3342 11.0346 21.4072 11.0346ZM21.4072 28.9866C17.5319 28.9866 14.3405 25.7644 14.3405 21.8518C14.3405 17.9392 17.5319 14.717 21.4072 14.717C25.2825 14.717 28.474 17.9392 28.474 21.8518C28.474 25.7644 25.2825 28.9866 21.4072 28.9866Z" fill="white"/>
<path d="M32.5774 7.92754C31.8935 7.92754 31.2096 8.27275 30.6397 8.73305C30.1838 9.19336 29.8419 9.99891 29.8419 10.6894C29.8419 11.3798 30.1838 12.0703 30.6397 12.6457C31.0956 13.106 31.8935 13.4512 32.5774 13.4512C33.2612 13.4512 33.9451 13.106 34.515 12.6457C34.9709 12.1854 35.3129 11.3798 35.3129 10.6894C35.3129 9.99891 34.9709 9.30844 34.515 8.73305C33.9451 8.27275 33.2612 7.92754 32.5774 7.92754Z" fill="white"/>
</svg>
