<svg width="137" height="24" viewBox="0 0 137 24" fill="none" xmlns="http://www.w3.org/2000/svg">
<g clip-path="url(#clip0_2_17213)">
<path d="M11.4239 2.78048C11.8641 1.88859 13.1359 1.88859 13.5761 2.78048L15.7475 7.18026C15.9223 7.53444 16.2602 7.77992 16.651 7.83671L21.5065 8.54225C22.4907 8.68527 22.8838 9.89484 22.1715 10.5891L18.6581 14.0138C18.3753 14.2895 18.2462 14.6867 18.313 15.076L19.1424 19.9118C19.3105 20.8921 18.2816 21.6397 17.4013 21.1768L13.0584 18.8937C12.7088 18.7099 12.2912 18.7099 11.9416 18.8937L7.59875 21.1768C6.71839 21.6397 5.68947 20.8921 5.8576 19.9118L6.68701 15.076C6.75378 14.6867 6.62472 14.2895 6.3419 14.0138L2.82846 10.5891C2.11624 9.89484 2.50925 8.68528 3.49352 8.54225L8.34897 7.83671C8.73982 7.77992 9.0777 7.53444 9.25249 7.18026L11.4239 2.78048Z" fill="#F3F4F6"/>
<g clip-path="url(#clip1_2_17213)">
<path d="M11.4239 2.78048C11.8641 1.88859 13.1359 1.88859 13.5761 2.78048L15.7475 7.18026C15.9223 7.53444 16.2602 7.77992 16.651 7.83671L21.5065 8.54225C22.4907 8.68527 22.8838 9.89484 22.1715 10.5891L18.6581 14.0138C18.3753 14.2895 18.2462 14.6867 18.313 15.076L19.1424 19.9118C19.3105 20.8921 18.2816 21.6397 17.4013 21.1768L13.0584 18.8937C12.7088 18.7099 12.2912 18.7099 11.9416 18.8937L7.59875 21.1768C6.71839 21.6397 5.68947 20.8921 5.8576 19.9118L6.68701 15.076C6.75378 14.6867 6.62472 14.2895 6.3419 14.0138L2.82846 10.5891C2.11624 9.89484 2.50925 8.68528 3.49352 8.54225L8.34897 7.83671C8.73982 7.77992 9.0777 7.53444 9.25249 7.18026L11.4239 2.78048Z" fill="#F59E0B"/>
</g>
</g>
<g clip-path="url(#clip2_2_17213)">
<path d="M39.4239 2.78048C39.8641 1.88859 41.1359 1.88859 41.5761 2.78048L43.7475 7.18026C43.9223 7.53444 44.2602 7.77992 44.651 7.83671L49.5065 8.54225C50.4907 8.68527 50.8838 9.89484 50.1715 10.5891L46.6581 14.0138C46.3753 14.2895 46.2462 14.6867 46.313 15.076L47.1424 19.9118C47.3105 20.8921 46.2816 21.6397 45.4013 21.1768L41.0584 18.8937C40.7088 18.7099 40.2912 18.7099 39.9416 18.8937L35.5987 21.1768C34.7184 21.6397 33.6895 20.8921 33.8576 19.9118L34.687 15.076C34.7538 14.6867 34.6247 14.2895 34.3419 14.0138L30.8285 10.5891C30.1162 9.89484 30.5093 8.68528 31.4935 8.54225L36.349 7.83671C36.7398 7.77992 37.0777 7.53444 37.2525 7.18026L39.4239 2.78048Z" fill="#F3F4F6"/>
<g clip-path="url(#clip3_2_17213)">
<path d="M39.4239 2.78048C39.8641 1.88859 41.1359 1.88859 41.5761 2.78048L43.7475 7.18026C43.9223 7.53444 44.2602 7.77992 44.651 7.83671L49.5065 8.54225C50.4907 8.68527 50.8838 9.89484 50.1715 10.5891L46.6581 14.0138C46.3753 14.2895 46.2462 14.6867 46.313 15.076L47.1424 19.9118C47.3105 20.8921 46.2816 21.6397 45.4013 21.1768L41.0584 18.8937C40.7088 18.7099 40.2912 18.7099 39.9416 18.8937L35.5987 21.1768C34.7184 21.6397 33.6895 20.8921 33.8576 19.9118L34.687 15.076C34.7538 14.6867 34.6247 14.2895 34.3419 14.0138L30.8285 10.5891C30.1162 9.89484 30.5093 8.68528 31.4935 8.54225L36.349 7.83671C36.7398 7.77992 37.0777 7.53444 37.2525 7.18026L39.4239 2.78048Z" fill="#F59E0B"/>
</g>
</g>
<g clip-path="url(#clip4_2_17213)">
<path d="M67.4239 2.78048C67.8641 1.88859 69.1359 1.88859 69.5761 2.78048L71.7475 7.18026C71.9223 7.53444 72.2602 7.77992 72.651 7.83671L77.5065 8.54225C78.4907 8.68527 78.8838 9.89484 78.1715 10.5891L74.6581 14.0138C74.3753 14.2895 74.2462 14.6867 74.313 15.076L75.1424 19.9118C75.3105 20.8921 74.2816 21.6397 73.4013 21.1768L69.0584 18.8937C68.7088 18.7099 68.2912 18.7099 67.9416 18.8937L63.5987 21.1768C62.7184 21.6397 61.6895 20.8921 61.8576 19.9118L62.687 15.076C62.7538 14.6867 62.6247 14.2895 62.3419 14.0138L58.8285 10.5891C58.1162 9.89484 58.5093 8.68528 59.4935 8.54225L64.349 7.83671C64.7398 7.77992 65.0777 7.53444 65.2525 7.18026L67.4239 2.78048Z" fill="#F3F4F6"/>
<g clip-path="url(#clip5_2_17213)">
<path d="M67.4239 2.78048C67.8641 1.88859 69.1359 1.88859 69.5761 2.78048L71.7475 7.18026C71.9223 7.53444 72.2602 7.77992 72.651 7.83671L77.5065 8.54225C78.4907 8.68527 78.8838 9.89484 78.1715 10.5891L74.6581 14.0138C74.3753 14.2895 74.2462 14.6867 74.313 15.076L75.1424 19.9118C75.3105 20.8921 74.2816 21.6397 73.4013 21.1768L69.0584 18.8937C68.7088 18.7099 68.2912 18.7099 67.9416 18.8937L63.5987 21.1768C62.7184 21.6397 61.6895 20.8921 61.8576 19.9118L62.687 15.076C62.7538 14.6867 62.6247 14.2895 62.3419 14.0138L58.8285 10.5891C58.1162 9.89484 58.5093 8.68528 59.4935 8.54225L64.349 7.83671C64.7398 7.77992 65.0777 7.53444 65.2525 7.18026L67.4239 2.78048Z" fill="#F59E0B"/>
</g>
</g>
<g clip-path="url(#clip6_2_17213)">
<path d="M95.4239 2.78048C95.8641 1.88859 97.1359 1.88859 97.5761 2.78048L99.7475 7.18026C99.9223 7.53444 100.26 7.77992 100.651 7.83671L105.506 8.54225C106.491 8.68527 106.884 9.89484 106.172 10.5891L102.658 14.0138C102.375 14.2895 102.246 14.6867 102.313 15.076L103.142 19.9118C103.311 20.8921 102.282 21.6397 101.401 21.1768L97.0584 18.8937C96.7088 18.7099 96.2912 18.7099 95.9416 18.8937L91.5987 21.1768C90.7184 21.6397 89.6895 20.8921 89.8576 19.9118L90.687 15.076C90.7538 14.6867 90.6247 14.2895 90.3419 14.0138L86.8285 10.5891C86.1162 9.89484 86.5093 8.68528 87.4935 8.54225L92.349 7.83671C92.7398 7.77992 93.0777 7.53444 93.2525 7.18026L95.4239 2.78048Z" fill="#F3F4F6"/>
<g clip-path="url(#clip7_2_17213)">
<path d="M95.4239 2.78048C95.8641 1.88859 97.1359 1.88859 97.5761 2.78048L99.7475 7.18026C99.9223 7.53444 100.26 7.77992 100.651 7.83671L105.506 8.54225C106.491 8.68527 106.884 9.89484 106.172 10.5891L102.658 14.0138C102.375 14.2895 102.246 14.6867 102.313 15.076L103.142 19.9118C103.311 20.8921 102.282 21.6397 101.401 21.1768L97.0584 18.8937C96.7088 18.7099 96.2912 18.7099 95.9416 18.8937L91.5987 21.1768C90.7184 21.6397 89.6895 20.8921 89.8576 19.9118L90.687 15.076C90.7538 14.6867 90.6247 14.2895 90.3419 14.0138L86.8285 10.5891C86.1162 9.89484 86.5093 8.68528 87.4935 8.54225L92.349 7.83671C92.7398 7.77992 93.0777 7.53444 93.2525 7.18026L95.4239 2.78048Z" fill="#F59E0B"/>
</g>
</g>
<g clip-path="url(#clip8_2_17213)">
<path d="M123.424 2.78048C123.864 1.88859 125.136 1.88859 125.576 2.78048L127.748 7.18026C127.922 7.53444 128.26 7.77992 128.651 7.83671L133.506 8.54225C134.491 8.68527 134.884 9.89484 134.172 10.5891L130.658 14.0138C130.375 14.2895 130.246 14.6867 130.313 15.076L131.142 19.9118C131.311 20.8921 130.282 21.6397 129.401 21.1768L125.058 18.8937C124.709 18.7099 124.291 18.7099 123.942 18.8937L119.599 21.1768C118.718 21.6397 117.689 20.8921 117.858 19.9118L118.687 15.076C118.754 14.6867 118.625 14.2895 118.342 14.0138L114.828 10.5891C114.116 9.89484 114.509 8.68528 115.494 8.54225L120.349 7.83671C120.74 7.77992 121.078 7.53444 121.252 7.18026L123.424 2.78048Z" fill="#F3F4F6"/>
<g clip-path="url(#clip9_2_17213)">
<path d="M123.424 2.78048C123.864 1.88859 125.136 1.88859 125.576 2.78048L127.748 7.18026C127.922 7.53444 128.26 7.77992 128.651 7.83671L133.506 8.54225C134.491 8.68527 134.884 9.89484 134.172 10.5891L130.658 14.0138C130.375 14.2895 130.246 14.6867 130.313 15.076L131.142 19.9118C131.311 20.8921 130.282 21.6397 129.401 21.1768L125.058 18.8937C124.709 18.7099 124.291 18.7099 123.942 18.8937L119.599 21.1768C118.718 21.6397 117.689 20.8921 117.858 19.9118L118.687 15.076C118.754 14.6867 118.625 14.2895 118.342 14.0138L114.828 10.5891C114.116 9.89484 114.509 8.68528 115.494 8.54225L120.349 7.83671C120.74 7.77992 121.078 7.53444 121.252 7.18026L123.424 2.78048Z" fill="#F59E0B"/>
</g>
</g>
<defs>
<clipPath id="clip0_2_17213">
<rect width="24" height="24" fill="white" transform="translate(0.5)"/>
</clipPath>
<clipPath id="clip1_2_17213">
<rect width="24" height="24" fill="white" transform="translate(0.5)"/>
</clipPath>
<clipPath id="clip2_2_17213">
<rect width="24" height="24" fill="white" transform="translate(28.5)"/>
</clipPath>
<clipPath id="clip3_2_17213">
<rect width="24" height="24" fill="white" transform="translate(28.5)"/>
</clipPath>
<clipPath id="clip4_2_17213">
<rect width="24" height="24" fill="white" transform="translate(56.5)"/>
</clipPath>
<clipPath id="clip5_2_17213">
<rect width="24" height="24" fill="white" transform="translate(56.5)"/>
</clipPath>
<clipPath id="clip6_2_17213">
<rect width="24" height="24" fill="white" transform="translate(84.5)"/>
</clipPath>
<clipPath id="clip7_2_17213">
<rect width="24" height="24" fill="white" transform="translate(84.5)"/>
</clipPath>
<clipPath id="clip8_2_17213">
<rect width="24" height="24" fill="white" transform="translate(112.5)"/>
</clipPath>
<clipPath id="clip9_2_17213">
<rect width="15.6" height="24" fill="white" transform="translate(112.5)"/>
</clipPath>
</defs>
</svg>
