<svg width="42" height="35" viewBox="0 0 42 35" fill="none" xmlns="http://www.w3.org/2000/svg">
<path d="M42 4.06272C40.479 4.70933 38.7978 5.1943 37.1166 5.43678C38.8779 4.38603 40.2388 2.68867 40.7992 0.748829C39.1981 1.71875 37.3568 2.44619 35.4354 2.85032C33.9144 1.15296 31.6728 0.183044 29.2711 0.183044C24.6279 0.183044 20.8652 3.9819 20.8652 8.75067C20.8652 9.39728 20.9453 10.0439 21.0254 10.6905C13.9804 10.3672 7.81611 6.97248 3.57314 1.79958C2.85264 3.0928 2.45236 4.54768 2.45236 6.08339C2.45236 9.07397 3.97342 11.6604 6.21499 13.1961C4.85404 13.1961 3.49308 12.792 2.3723 12.1454V12.2262C2.3723 16.3484 5.33437 19.8239 9.17706 20.6322C8.45656 20.7938 7.73605 20.8747 6.93549 20.8747C6.3751 20.8747 5.81471 20.8747 5.33437 20.713C6.45516 24.1077 9.49729 26.6134 13.2599 26.6942C10.3779 28.9573 6.69533 30.3314 2.77258 30.3314C2.05208 30.3314 1.41163 30.3314 0.771179 30.2506C4.53381 32.6754 8.9369 34.0494 13.7403 34.0494C29.2711 34.0494 37.7571 21.0363 37.7571 9.80141C37.7571 9.39728 37.7571 9.07398 37.7571 8.66984C39.4382 7.29579 40.8793 5.76008 42 4.06272Z" fill="white"/>
</svg>
