<svg width="42" height="29" viewBox="0 0 42 29" fill="none" xmlns="http://www.w3.org/2000/svg">
<path fill-rule="evenodd" clip-rule="evenodd" d="M10.9762 0.99326C17.7174 0.499317 24.4894 0.499317 31.2305 0.99326L35.7575 1.3264C36.9836 1.41593 38.1424 1.88726 39.0493 2.66529C39.9562 3.44332 40.5589 4.48327 40.7614 5.6194C41.8063 11.4683 41.8063 17.4365 40.7614 23.2835C40.559 24.4194 39.9566 25.4591 39.0501 26.2371C38.1436 27.0151 36.9853 27.4866 35.7595 27.5765L31.2325 27.9078C24.4907 28.4019 17.718 28.4019 10.9762 27.9078L6.44923 27.5765C5.22312 27.487 4.06429 27.0157 3.15742 26.2376C2.25054 25.4596 1.64781 24.4197 1.44528 23.2835C0.402191 17.436 0.402191 11.4669 1.44528 5.6194C1.64772 4.48356 2.25016 3.44384 3.15663 2.66584C4.0631 1.88785 5.22146 1.41633 6.44721 1.3264L10.9742 0.995153L10.9762 0.99326ZM17.0614 19.1268V9.77611C17.0616 9.67576 17.0901 9.57724 17.1442 9.49058C17.1982 9.40393 17.2758 9.33224 17.369 9.2828C17.4623 9.23337 17.5678 9.20795 17.675 9.20916C17.7821 9.21036 17.887 9.23813 17.9789 9.28964L26.2993 13.965C26.3889 14.0155 26.4629 14.0868 26.5144 14.1721C26.5658 14.2573 26.5928 14.3536 26.5928 14.4515C26.5928 14.5494 26.5658 14.6456 26.5144 14.7308C26.4629 14.8161 26.3889 14.8874 26.2993 14.9379L17.9789 19.6133C17.887 19.6648 17.7821 19.6926 17.675 19.6938C17.5678 19.695 17.4623 19.6696 17.369 19.6201C17.2758 19.5707 17.1982 19.499 17.1442 19.4123C17.0901 19.3257 17.0616 19.2272 17.0614 19.1268Z" fill="white"/>
</svg>
