<svg width="141" height="117" viewBox="0 0 141 117" fill="none" xmlns="http://www.w3.org/2000/svg">
<path d="M31.8373 107.152C31.655 107.046 31.4664 106.952 31.2726 106.87C30.7247 106.7 30.1564 106.605 29.5832 106.587H27.2881V114.199H29.7449C30.263 114.215 30.779 114.127 31.2627 113.94C31.7463 113.754 32.1878 113.472 32.5613 113.113C32.9283 112.768 33.2184 112.349 33.413 111.884C33.6076 111.419 33.7022 110.919 33.6908 110.415C33.6921 109.751 33.5182 109.098 33.1864 108.523C32.8713 107.95 32.4045 107.476 31.8373 107.152ZM32.5227 111.923C32.2643 112.382 31.8887 112.764 31.4343 113.031C31.2547 113.136 31.0656 113.223 30.8695 113.292C30.6794 113.361 30.4841 113.415 30.2855 113.453C30.0266 113.499 29.7639 113.519 29.5012 113.514H28.0531V107.273H29.4625L30.1479 107.321C30.5215 107.322 30.8903 107.406 31.2278 107.566C31.5653 107.726 31.8633 107.959 32.1004 108.248C32.6373 108.829 32.9332 109.592 32.9282 110.383C32.9307 110.923 32.7908 111.455 32.5227 111.923Z" fill="url(#paint0_linear_31_54)"/>
<path d="M39.7725 109.609C39.5563 109.238 39.2431 108.934 38.8668 108.728C38.4905 108.522 38.0652 108.423 37.6367 108.441C37.2352 108.431 36.8359 108.503 36.4627 108.651C36.0895 108.8 35.75 109.022 35.4647 109.305C35.1844 109.575 34.9614 109.899 34.8091 110.257C34.6569 110.615 34.5784 111.001 34.5784 111.39C34.5784 111.779 34.6569 112.164 34.8091 112.523C34.9614 112.881 35.1844 113.205 35.4647 113.475C35.76 113.755 36.1078 113.974 36.488 114.119C36.8683 114.264 37.2734 114.332 37.6801 114.32C38.1014 114.327 38.5171 114.223 38.8851 114.018C39.2531 113.813 39.5601 113.514 39.775 113.152V114.199H40.54V108.561H39.775L39.7725 109.609ZM39.1282 112.951C38.9301 113.158 38.692 113.321 38.4285 113.432C38.165 113.543 37.8815 113.598 37.5957 113.596C37.301 113.6 37.0084 113.545 36.7352 113.435C36.4621 113.324 36.2139 113.16 36.0052 112.951C35.796 112.747 35.6296 112.503 35.5161 112.234C35.4025 111.964 35.344 111.675 35.344 111.383C35.344 111.09 35.4025 110.801 35.5161 110.531C35.6296 110.262 35.796 110.018 36.0052 109.814C36.2204 109.603 36.4756 109.437 36.7558 109.327C37.036 109.216 37.3355 109.163 37.6367 109.17C37.9195 109.166 38.2001 109.221 38.4603 109.332C38.7205 109.443 38.9545 109.607 39.1475 109.814C39.3514 110.021 39.5118 110.266 39.6192 110.536C39.7265 110.806 39.7787 111.095 39.7725 111.385C39.7769 111.676 39.722 111.965 39.6112 112.234C39.5005 112.504 39.3361 112.748 39.1282 112.951Z" fill="url(#paint1_linear_31_54)"/>
<path d="M44.3218 108.441C43.9732 108.437 43.629 108.519 43.3199 108.68C43.0108 108.841 42.7464 109.077 42.5504 109.365V108.561H41.8264V114.199H42.5915V111.018C42.5744 110.662 42.6501 110.308 42.8111 109.99C42.9591 109.735 43.1756 109.526 43.4361 109.387C43.6949 109.242 43.9865 109.165 44.2832 109.165C44.5231 109.154 44.7623 109.196 44.9847 109.286C45.2071 109.376 45.4074 109.514 45.572 109.688C45.9081 110.079 46.081 110.583 46.0547 111.098V114.199H46.8197V111.018C46.8318 110.678 46.7757 110.339 46.6546 110.02C46.5336 109.702 46.3501 109.411 46.115 109.165C45.8829 108.926 45.6035 108.738 45.2948 108.614C44.986 108.489 44.6547 108.43 44.3218 108.441Z" fill="url(#paint2_linear_31_54)"/>
<path d="M50.8862 109.165C51.2774 109.148 51.6655 109.242 52.0066 109.434C52.3478 109.626 52.6284 109.91 52.8169 110.253H53.705L53.623 110.13C53.5538 109.964 53.4732 109.803 53.3816 109.647C53.2882 109.528 53.1804 109.42 53.0606 109.326C52.784 109.041 52.4518 108.815 52.0844 108.662C51.7171 108.51 51.3224 108.435 50.9248 108.441C50.5233 108.432 50.1241 108.503 49.7509 108.652C49.3778 108.8 49.0383 109.022 48.7527 109.305C48.4725 109.575 48.2495 109.899 48.0972 110.257C47.9449 110.615 47.8665 111.001 47.8665 111.39C47.8665 111.779 47.9449 112.164 48.0972 112.523C48.2495 112.881 48.4725 113.205 48.7527 113.475C49.2652 113.947 49.9181 114.238 50.6116 114.303C51.3051 114.369 52.0009 114.205 52.5924 113.837C53.0745 113.53 53.4477 113.079 53.6591 112.548H52.812C52.6204 112.873 52.3421 113.138 52.0084 113.313C51.6616 113.501 51.2732 113.598 50.8789 113.596C50.5842 113.6 50.2916 113.545 50.0185 113.435C49.7453 113.324 49.4971 113.16 49.2885 112.951C49.0792 112.747 48.9129 112.503 48.7993 112.234C48.6858 111.964 48.6273 111.675 48.6273 111.383C48.6273 111.09 48.6858 110.801 48.7993 110.531C48.9129 110.262 49.0792 110.018 49.2885 109.814C49.4976 109.604 49.7468 109.438 50.0213 109.327C50.2958 109.215 50.5899 109.16 50.8862 109.165Z" fill="url(#paint3_linear_31_54)"/>
<path d="M60.3323 110.977C60.3108 110.783 60.2629 110.593 60.1899 110.412C60.0334 109.827 59.6687 109.319 59.1643 108.984C58.6641 108.629 58.0661 108.44 57.4532 108.441C56.9918 108.44 56.5368 108.548 56.1249 108.756C55.713 108.963 55.3558 109.265 55.0821 109.637C54.8084 110.008 54.626 110.438 54.5496 110.893C54.4732 111.348 54.505 111.815 54.6423 112.255C54.7797 112.696 55.0187 113.098 55.3402 113.429C55.6617 113.759 56.0565 114.01 56.4928 114.16C56.929 114.31 57.3945 114.355 57.8514 114.292C58.3084 114.229 58.7441 114.059 59.1232 113.796C59.6297 113.436 60.0158 112.931 60.231 112.348H59.3863C59.2453 112.731 58.9746 113.052 58.6212 113.255C58.2584 113.479 57.8407 113.598 57.4145 113.598C56.8609 113.602 56.3269 113.393 55.9231 113.014C55.7239 112.85 55.5631 112.644 55.4518 112.411C55.3405 112.178 55.2814 111.923 55.2787 111.665H60.3468C60.3516 111.366 60.3444 111.139 60.3323 110.977ZM55.2642 110.977C55.3714 110.459 55.6483 109.991 56.051 109.647C56.4416 109.325 56.9349 109.154 57.4411 109.165C57.934 109.16 58.4125 109.331 58.7902 109.647C59.1914 109.992 59.4673 110.459 59.5745 110.977H55.2642Z" fill="url(#paint4_linear_31_54)"/>
<path d="M66.957 106.597L63.6941 114.199H64.5412L65.6272 111.622H69.1725L70.2585 114.199H71.1056L67.8427 106.597H66.957ZM65.9096 110.941L67.401 107.478L68.8491 110.941H65.9096Z" fill="url(#paint5_linear_31_54)"/>
<path d="M74.6484 109.165C75.0396 109.148 75.4277 109.242 75.7688 109.434C76.11 109.626 76.3906 109.91 76.5791 110.253H77.4648L77.3851 110.13C77.316 109.964 77.2354 109.803 77.1438 109.647C77.0503 109.528 76.9426 109.42 76.8228 109.326C76.5462 109.041 76.214 108.815 75.8466 108.662C75.4793 108.51 75.0846 108.435 74.687 108.441C74.2854 108.431 73.8862 108.503 73.513 108.651C73.1398 108.8 72.8003 109.022 72.5149 109.305C72.2346 109.575 72.0117 109.899 71.8594 110.257C71.7071 110.615 71.6287 111.001 71.6287 111.39C71.6287 111.779 71.7071 112.164 71.8594 112.523C72.0117 112.881 72.2346 113.205 72.5149 113.475C73.0279 113.949 73.6822 114.24 74.3772 114.306C75.0723 114.371 75.7696 114.207 76.3619 113.837C76.8439 113.53 77.2171 113.079 77.4286 112.548H76.5815C76.3899 112.873 76.1116 113.138 75.7778 113.313C75.431 113.501 75.0426 113.598 74.6484 113.596C74.3537 113.6 74.0611 113.545 73.7879 113.435C73.5148 113.324 73.2665 113.16 73.0579 112.951C72.8486 112.747 72.6823 112.503 72.5688 112.234C72.4552 111.964 72.3967 111.675 72.3967 111.383C72.3967 111.09 72.4552 110.801 72.5688 110.531C72.6823 110.262 72.8486 110.018 73.0579 109.814C73.2661 109.605 73.5142 109.44 73.7874 109.328C74.0605 109.217 74.3533 109.161 74.6484 109.165Z" fill="url(#paint6_linear_31_54)"/>
<path d="M83.4693 109.609C83.2539 109.238 82.9412 108.934 82.5653 108.728C82.1893 108.522 81.7642 108.423 81.3359 108.441C80.9344 108.432 80.5353 108.504 80.1621 108.652C79.789 108.801 79.4495 109.022 79.1639 109.305C78.8836 109.575 78.6606 109.899 78.5084 110.257C78.3561 110.615 78.2776 111.001 78.2776 111.39C78.2776 111.779 78.3561 112.164 78.5084 112.523C78.6606 112.881 78.8836 113.205 79.1639 113.475C79.4593 113.755 79.8071 113.973 80.1873 114.118C80.5675 114.263 80.9726 114.332 81.3794 114.32C81.8007 114.328 82.2166 114.224 82.5847 114.019C82.9528 113.814 83.2597 113.514 83.4742 113.152V114.199H84.2392V108.561H83.4742L83.4693 109.609ZM82.825 112.951C82.6274 113.157 82.3897 113.321 82.1266 113.432C81.8634 113.543 81.5804 113.598 81.2949 113.596C81.0001 113.6 80.7075 113.546 80.4343 113.435C80.1611 113.324 79.9129 113.16 79.7045 112.951C79.4946 112.748 79.3277 112.504 79.2138 112.234C79.0998 111.965 79.0411 111.675 79.0411 111.383C79.0411 111.09 79.0998 110.801 79.2138 110.531C79.3277 110.262 79.4946 110.018 79.7045 109.814C79.9195 109.603 80.1746 109.437 80.4549 109.326C80.7351 109.216 81.0347 109.162 81.3359 109.17C81.6184 109.166 81.8986 109.221 82.1583 109.332C82.4181 109.443 82.6518 109.607 82.8443 109.814C83.0482 110.021 83.2086 110.266 83.316 110.536C83.4233 110.806 83.4755 111.095 83.4693 111.385C83.4743 111.676 83.4196 111.965 83.3088 112.235C83.198 112.504 83.0334 112.748 82.825 112.951Z" fill="url(#paint7_linear_31_54)"/>
<path d="M90.4828 109.493C90.2358 109.152 89.908 108.878 89.5288 108.696C89.1496 108.514 88.731 108.428 88.3107 108.448C87.9115 108.437 87.5143 108.508 87.1437 108.657C86.773 108.805 86.4367 109.028 86.1556 109.312C85.8743 109.586 85.6523 109.916 85.5033 110.279C85.3543 110.643 85.2814 111.033 85.2892 111.426C85.2762 111.848 85.3587 112.268 85.5305 112.654C85.7351 113.043 86.0247 113.38 86.3776 113.642C86.6582 113.861 86.9697 114.037 87.3019 114.165C87.6261 114.278 87.9676 114.333 88.3107 114.327C88.7448 114.341 89.1753 114.245 89.5623 114.048C89.9492 113.851 90.28 113.559 90.5238 113.2V114.206H91.2478V106.597H90.4828V109.493ZM89.8577 112.959C89.6491 113.167 89.4009 113.331 89.1277 113.442C88.8546 113.552 88.562 113.607 88.2673 113.603C87.9734 113.608 87.6817 113.551 87.4111 113.436C87.1405 113.322 86.8969 113.152 86.6962 112.937C86.3872 112.628 86.1771 112.234 86.0925 111.805C86.0079 111.376 86.0526 110.932 86.2209 110.528C86.3893 110.125 86.6736 109.781 87.038 109.539C87.4023 109.298 87.8302 109.17 88.2673 109.172C88.8593 109.162 89.4312 109.386 89.8577 109.797C90.0677 110.003 90.2345 110.249 90.3484 110.521C90.4623 110.792 90.5209 111.083 90.5209 111.378C90.5209 111.672 90.4623 111.963 90.3484 112.235C90.2345 112.506 90.0677 112.752 89.8577 112.959Z" fill="url(#paint8_linear_31_54)"/>
<path d="M98.15 110.977C98.1284 110.783 98.0805 110.593 98.0076 110.412C97.851 109.827 97.4863 109.319 96.9819 108.984C96.4818 108.629 95.8837 108.44 95.2708 108.441C94.8095 108.44 94.3545 108.548 93.9425 108.756C93.5306 108.963 93.1734 109.265 92.8997 109.637C92.6261 110.008 92.4436 110.438 92.3672 110.893C92.2908 111.348 92.3226 111.815 92.46 112.255C92.5973 112.696 92.8364 113.098 93.1578 113.429C93.4793 113.759 93.8741 114.01 94.3104 114.16C94.7466 114.31 95.2121 114.355 95.6691 114.292C96.126 114.229 96.5617 114.059 96.9409 113.796C97.4474 113.436 97.8334 112.931 98.0486 112.348H97.2039C97.063 112.731 96.7922 113.052 96.4389 113.255C96.0761 113.479 95.6584 113.598 95.2322 113.598C94.6785 113.602 94.1445 113.393 93.7407 113.014C93.5416 112.85 93.3807 112.644 93.2694 112.411C93.1581 112.178 93.0991 111.923 93.0963 111.665H98.1644C98.1693 111.366 98.162 111.139 98.15 110.977ZM93.0819 110.977C93.1891 110.459 93.4659 109.991 93.8686 109.647C94.2592 109.325 94.7525 109.154 95.2587 109.165C95.7516 109.16 96.2301 109.331 96.6078 109.647C97.0091 109.992 97.2849 110.459 97.3922 110.977H93.0819Z" fill="url(#paint9_linear_31_54)"/>
<path d="M107.393 109.647C107.161 109.281 106.843 108.977 106.467 108.762C106.112 108.553 105.709 108.443 105.299 108.441C104.917 108.436 104.542 108.532 104.21 108.721C103.893 108.905 103.629 109.169 103.445 109.486L103.365 109.365C103.23 109.206 103.124 109.097 103.083 109.044C102.882 108.848 102.642 108.697 102.378 108.6C102.102 108.495 101.808 108.441 101.512 108.441C100.788 108.441 100.276 108.721 99.9818 109.285V108.561H99.2578V114.199H100.023V110.7C100.014 110.496 100.047 110.293 100.12 110.102C100.192 109.912 100.303 109.738 100.445 109.592C100.737 109.314 101.128 109.162 101.531 109.17C101.935 109.177 102.319 109.344 102.6 109.633C102.739 109.774 102.849 109.94 102.923 110.123C102.997 110.306 103.034 110.502 103.032 110.7V114.199H103.838V110.635C103.838 110.519 103.852 110.404 103.879 110.292C103.932 109.972 104.105 109.684 104.362 109.486C104.637 109.271 104.978 109.157 105.327 109.165C105.536 109.158 105.744 109.198 105.936 109.281C106.127 109.365 106.298 109.49 106.435 109.647C106.72 109.984 106.871 110.414 106.858 110.854V114.199H107.623V110.774C107.615 110.387 107.533 110.004 107.381 109.647H107.393Z" fill="url(#paint10_linear_31_54)"/>
<path d="M110.977 113.031L109.206 108.561H108.359L110.533 113.999L109.647 116.173H110.453L113.716 108.561H112.869L110.977 113.031Z" fill="url(#paint11_linear_31_54)"/>
<path d="M11.3091 88.0379H10.3945C10.2197 88.0377 10.0489 88.0901 9.90431 88.1883C9.7597 88.2864 9.64793 88.4257 9.58355 88.5882L6.61267 96.1566C6.4558 96.5427 6.28204 97.0085 6.08897 97.5491C6.0436 97.4447 6.0104 97.3353 5.99003 97.2233C5.97872 97.1696 5.96256 97.1171 5.94176 97.0664C5.82236 96.7919 5.72157 96.5097 5.64008 96.2217C5.63007 96.178 5.61634 96.1352 5.59906 96.0938L2.59681 88.5834C2.53209 88.422 2.42044 88.2838 2.27631 88.1865C2.13217 88.0893 1.96218 88.0375 1.78831 88.0379H0.868813C0.638388 88.0379 0.417398 88.1295 0.254463 88.2924C0.091528 88.4553 0 88.6763 0 88.9068V99.1733C0 99.4037 0.091528 99.6247 0.254463 99.7877C0.417398 99.9506 0.638388 100.042 0.868813 100.042H0.929148C1.15957 100.042 1.38056 99.9506 1.5435 99.7877C1.70643 99.6247 1.79798 99.4037 1.79798 99.1733V92.8985C1.79798 92.049 1.75935 91.1794 1.68212 90.2896H1.74004C1.8945 90.9075 2.10688 91.6049 2.37718 92.3772L5.17672 99.4822C5.24039 99.6447 5.35163 99.7841 5.49589 99.8823C5.64015 99.9805 5.8107 100.033 5.98519 100.032H6.18791C6.36364 100.033 6.53537 99.9799 6.68052 99.8809C6.82566 99.7818 6.93747 99.6411 7.00124 99.4774L9.74284 92.3772C10.0432 91.7059 10.2768 91.0067 10.4403 90.2896H10.4982C10.3824 91.4497 10.3245 92.3193 10.3245 92.8985V99.1733C10.3245 99.4037 10.416 99.6247 10.5789 99.7877C10.7419 99.9506 10.9629 100.042 11.1933 100.042H11.3091C11.5395 100.042 11.7605 99.9506 11.9235 99.7877C12.0864 99.6247 12.1779 99.4037 12.1779 99.1733V88.9068C12.1779 88.7927 12.1555 88.6797 12.1118 88.5743C12.0682 88.4689 12.0042 88.3731 11.9235 88.2924C11.8428 88.2117 11.747 88.1477 11.6416 88.1041C11.5362 88.0604 11.4232 88.0379 11.3091 88.0379Z" fill="url(#paint12_linear_31_54)"/>
<path d="M27.5126 93.9556C27.2294 90.1086 25.281 88.0597 21.6674 87.8087H21.5371C17.7674 88.0211 15.7795 90.0901 15.5736 94.0159C15.5712 94.0513 15.5712 94.0867 15.5736 94.1221C15.7345 97.9835 17.6885 100.014 21.4357 100.213H21.5371C25.3888 100.082 27.3815 98.0318 27.515 94.0642C27.5177 94.028 27.5169 93.9916 27.5126 93.9556ZM21.5009 98.5893C21.4527 98.5929 21.4043 98.5929 21.3561 98.5893C18.9829 98.3737 17.732 96.8862 17.6033 94.1269C17.6008 94.09 17.6008 94.0529 17.6033 94.0159C17.7641 91.2646 19.0465 89.778 21.4502 89.556C21.5128 89.5499 21.5758 89.5499 21.6384 89.556C23.9601 89.8166 25.2223 91.3025 25.425 94.0135C25.4274 94.0505 25.4274 94.0875 25.425 94.1245C25.3349 96.961 24.0269 98.4493 21.5009 98.5893Z" fill="url(#paint13_linear_31_54)"/>
<path d="M38.3535 95.8742C38.2635 95.7707 38.1995 95.6472 38.1666 95.514C38.1338 95.3808 38.1332 95.2417 38.1648 95.1082C38.1964 94.9747 38.2593 94.8507 38.3484 94.7464C38.4374 94.642 38.5501 94.5604 38.6769 94.5082C39.9753 93.9885 40.631 92.9669 40.6438 91.4432C40.6438 91.4167 40.6438 91.3853 40.6438 91.3588C40.5119 89.1819 39.1009 88.0556 36.4108 87.98H31.6564C31.4257 87.98 31.2045 88.0715 31.0412 88.2343C30.8779 88.3972 30.7858 88.6182 30.7852 88.8488V99.1733C30.7858 99.4039 30.8779 99.6249 31.0412 99.7878C31.2045 99.9507 31.4257 100.042 31.6564 100.042H31.8977C32.1281 100.042 32.3491 99.9506 32.5121 99.7876C32.675 99.6247 32.7665 99.4037 32.7665 99.1733V95.809C32.7665 95.578 32.8583 95.3564 33.0217 95.193C33.1851 95.0296 33.4067 94.9378 33.6378 94.9378H34.7841C34.9149 94.9381 35.044 94.9677 35.1617 95.0245C35.2795 95.0813 35.3831 95.1639 35.4647 95.266L39.0027 99.7139C39.084 99.8164 39.1875 99.8993 39.3053 99.9561C39.4232 100.013 39.5524 100.042 39.6833 100.042H40.0429C40.2116 100.044 40.3772 99.9974 40.5197 99.907C40.6621 99.8166 40.7752 99.6867 40.845 99.5332C40.9149 99.3796 40.9386 99.2091 40.9131 99.0423C40.8877 98.8756 40.8142 98.7198 40.7018 98.5941L38.3535 95.8742ZM33.6257 93.1398C33.3951 93.1398 33.1738 93.0484 33.0105 92.8855C32.8472 92.7226 32.7551 92.5017 32.7545 92.271V90.6468C32.7551 90.4162 32.8472 90.1952 33.0105 90.0323C33.1738 89.8695 33.3951 89.778 33.6257 89.778H36.0608C37.7244 89.8166 38.5756 90.3387 38.6142 91.3443C38.6512 92.5413 37.8001 93.1398 36.0608 93.1398H33.6257Z" fill="url(#paint14_linear_31_54)"/>
<path d="M53.6132 88.0379H53.4395C53.2088 88.0379 52.9876 88.1294 52.8243 88.2923C52.661 88.4551 52.5689 88.6761 52.5683 88.9068V95.4615C52.5711 96.1782 52.6105 96.8943 52.6865 97.607V97.6673C52.3705 96.916 51.9817 96.1974 51.5257 95.5218C50.5217 93.9596 48.9458 91.5929 46.7978 88.4217C46.7173 88.304 46.6093 88.2077 46.4831 88.1413C46.3569 88.0748 46.2164 88.0402 46.0738 88.0403H45.3764C45.1457 88.0403 44.9245 88.1318 44.7612 88.2947C44.5978 88.4575 44.5058 88.6785 44.5051 88.9092V99.1757C44.5058 99.4064 44.5978 99.6273 44.7612 99.7902C44.9245 99.9531 45.1457 100.045 45.3764 100.045H45.5501C45.7806 100.045 46.0015 99.953 46.1645 99.7901C46.3274 99.6271 46.4189 99.4061 46.4189 99.1757V92.7923C46.426 91.9965 46.3679 91.2015 46.2452 90.4151H46.3176C46.6233 91.0587 46.9853 91.7457 47.4036 92.4762C47.4149 92.4925 47.4254 92.5094 47.435 92.5268C48.4776 94.0907 50.0865 96.4687 52.2618 99.6608C52.3418 99.7789 52.4498 99.8755 52.5761 99.942C52.7023 100.009 52.8431 100.043 52.9858 100.042H53.6277C53.8581 100.042 54.0791 99.9506 54.2421 99.7877C54.405 99.6247 54.4966 99.4037 54.4966 99.1733V88.9068C54.4966 88.7914 54.4736 88.6773 54.4291 88.5709C54.3845 88.4645 54.3192 88.3681 54.237 88.2872C54.1548 88.2064 54.0573 88.1427 53.9502 88.0999C53.8431 88.0571 53.7286 88.036 53.6132 88.0379Z" fill="url(#paint15_linear_31_54)"/>
<path d="M59.6154 88.0379H59.3813C58.9014 88.0379 58.5125 88.4269 58.5125 88.9068V99.1733C58.5125 99.6531 58.9014 100.042 59.3813 100.042H59.6154C60.0952 100.042 60.4842 99.6531 60.4842 99.1733V88.9068C60.4842 88.4269 60.0952 88.0379 59.6154 88.0379Z" fill="url(#paint16_linear_31_54)"/>
<path d="M65.3256 100.042H65.4993C65.73 100.042 65.9512 99.9507 66.1145 99.7878C66.2779 99.6249 66.3699 99.404 66.3706 99.1733V92.7923C66.3776 91.9965 66.3195 91.2015 66.1968 90.4151H66.2547C66.5588 91.0587 66.9208 91.7457 67.3407 92.4762C67.3503 92.4936 67.3608 92.5105 67.3721 92.5268C68.4147 94.0907 70.0236 96.4687 72.1989 99.6608C72.2793 99.7786 72.3873 99.875 72.5135 99.9415C72.6397 100.008 72.7803 100.043 72.9229 100.042H73.5649C73.7953 100.042 74.0163 99.9506 74.1792 99.7877C74.3421 99.6247 74.4337 99.4037 74.4337 99.1733V88.9068C74.4337 88.6763 74.3421 88.4553 74.1792 88.2924C74.0163 88.1295 73.7953 88.0379 73.5649 88.0379H73.3911C73.2768 88.0376 73.1636 88.0599 73.0579 88.1034C72.9522 88.1469 72.8561 88.2109 72.7752 88.2916C72.6943 88.3723 72.6301 88.4681 72.5862 88.5737C72.5424 88.6793 72.5199 88.7925 72.5199 88.9068V95.4615C72.5199 96.118 72.5585 96.8347 72.6357 97.607V97.6674C72.3214 96.9157 71.9334 96.197 71.4773 95.5218C70.4733 93.9596 68.8966 91.5929 66.7471 88.4217C66.6665 88.304 66.5585 88.2077 66.4323 88.1413C66.3061 88.0748 66.1656 88.0402 66.023 88.0404H65.3232C65.0927 88.0404 64.8717 88.1319 64.7088 88.2948C64.5459 88.4578 64.4543 88.6788 64.4543 88.9092V99.1757C64.4547 99.2898 64.4774 99.4027 64.5214 99.508C64.5654 99.6133 64.6296 99.7089 64.7105 99.7894C64.7914 99.8698 64.8874 99.9336 64.9929 99.9769C65.0984 100.02 65.2115 100.042 65.3256 100.042Z" fill="url(#paint17_linear_31_54)"/>
<path d="M84.0293 100.216C86.3413 100.216 88.046 99.5916 89.1433 98.3431C89.2848 98.1813 89.3636 97.9741 89.3653 97.7591V94.3586C89.3646 94.128 89.2726 93.907 89.1093 93.7441C88.9459 93.5813 88.7247 93.4898 88.494 93.4898H84.4927C84.2698 93.5015 84.06 93.5983 83.9064 93.7602C83.7529 93.9221 83.6673 94.1367 83.6673 94.3598C83.6673 94.5829 83.7529 94.7976 83.9064 94.9595C84.06 95.1213 84.2698 95.2181 84.4927 95.2299H86.5223C86.753 95.2299 86.9742 95.3213 87.1375 95.4842C87.3008 95.647 87.3929 95.868 87.3935 96.0987V96.9602C87.3951 97.0792 87.3716 97.1972 87.3246 97.3066C87.2776 97.4159 87.2082 97.5142 87.1208 97.595C86.4209 98.2128 85.3872 98.5257 84.0196 98.5338H83.9207C81.4204 98.3262 80.085 96.8597 79.9145 94.1342C79.9121 94.0924 79.9121 94.0505 79.9145 94.0087C80.0754 91.288 81.3287 89.8223 83.6745 89.6115C83.7171 89.6091 83.7598 89.6091 83.8024 89.6115C85.2505 89.6598 86.2753 90.2229 86.8771 91.3009C86.97 91.4743 87.1187 91.6113 87.2991 91.6897C87.4796 91.7681 87.6812 91.7833 87.8714 91.7328L88.2334 91.6315C88.3627 91.5963 88.4822 91.5315 88.5822 91.4424C88.6823 91.3532 88.7603 91.242 88.8102 91.1175C88.86 90.9931 88.8803 90.8588 88.8694 90.7252C88.8585 90.5916 88.8168 90.4623 88.7475 90.3476C87.737 88.6984 86.1 87.8537 83.8362 87.8135H83.7566C79.9708 87.9824 77.9934 90.0539 77.8245 94.028V94.1245C77.9934 98.0326 80.0617 100.063 84.0293 100.216Z" fill="url(#paint18_linear_31_54)"/>
<path d="M97.5683 98.4758C95.8934 98.5402 94.8476 97.9602 94.4309 96.7358C94.3536 96.5236 94.198 96.3491 93.996 96.2481C93.794 96.1471 93.561 96.1273 93.3449 96.1928L93.1035 96.2603C92.9888 96.2948 92.8824 96.3523 92.7908 96.4295C92.6992 96.5067 92.6245 96.6018 92.5711 96.709C92.5177 96.8162 92.4869 96.9332 92.4805 97.0528C92.4741 97.1724 92.4923 97.292 92.534 97.4043C93.2773 99.3817 94.9667 100.319 97.6021 100.216C100.619 100.139 102.185 98.9786 102.301 96.7358C102.378 94.7649 100.769 93.4697 97.4742 92.8502C95.5033 92.5027 94.595 91.9396 94.7495 91.1609C94.7881 90.0797 95.6191 89.5391 97.2425 89.5391C98.4202 89.5069 99.2311 89.9847 99.6752 90.9726C99.7598 91.1639 99.9107 91.3181 100.1 91.4069C100.29 91.4956 100.505 91.5128 100.706 91.4553L101.053 91.3563C101.175 91.3231 101.289 91.2635 101.385 91.1816C101.482 91.0997 101.559 90.9975 101.612 90.8824C101.665 90.7673 101.692 90.642 101.691 90.5153C101.689 90.3887 101.661 90.2639 101.606 90.1497C100.872 88.6083 99.3985 87.8215 97.1846 87.7894C94.2885 87.8666 92.781 88.9872 92.6619 91.1512C92.5461 92.8905 94.0536 94.0698 97.1846 94.6892C99.3486 95.1156 100.354 95.7729 100.201 96.661C100.225 97.8725 99.3478 98.4774 97.5683 98.4758Z" fill="url(#paint19_linear_31_54)"/>
<path d="M113.837 88.0379H105.542C105.319 88.0497 105.11 88.1465 104.956 88.3083C104.802 88.4702 104.717 88.6848 104.717 88.908C104.717 89.1311 104.802 89.3457 104.956 89.5076C105.11 89.6695 105.319 89.7663 105.542 89.778H107.859C108.09 89.778 108.311 89.8695 108.474 90.0323C108.638 90.1952 108.73 90.4162 108.73 90.6468V99.1733C108.73 99.4037 108.822 99.6247 108.985 99.7877C109.148 99.9506 109.369 100.042 109.599 100.042H109.84C109.955 100.042 110.068 100.02 110.174 99.9767C110.279 99.9332 110.375 99.8692 110.456 99.7885C110.537 99.7078 110.601 99.6119 110.645 99.5063C110.689 99.4008 110.712 99.2876 110.712 99.1733V90.6468C110.712 90.4164 110.803 90.1954 110.966 90.0325C111.129 89.8695 111.35 89.778 111.58 89.778H113.844C114.067 89.7663 114.277 89.6695 114.43 89.5076C114.584 89.3457 114.67 89.1311 114.67 88.908C114.67 88.6848 114.584 88.4702 114.43 88.3083C114.277 88.1465 114.067 88.0497 113.844 88.0379H113.837Z" fill="url(#paint20_linear_31_54)"/>
<path d="M123.483 88.5134C123.417 88.3552 123.305 88.2202 123.162 88.1253C123.019 88.0305 122.851 87.9799 122.68 87.98H121.924C121.753 87.9802 121.585 88.0309 121.442 88.1257C121.299 88.2206 121.187 88.3554 121.121 88.5134L116.803 98.8378C116.747 98.9702 116.725 99.1143 116.738 99.2573C116.752 99.4003 116.801 99.5378 116.88 99.6573C116.96 99.7769 117.068 99.8748 117.195 99.9424C117.321 100.01 117.463 100.045 117.607 100.045H117.809C117.981 100.044 118.148 99.9938 118.291 99.8989C118.433 99.8041 118.545 99.6692 118.611 99.5112L119.381 97.677C119.448 97.5197 119.56 97.3855 119.703 97.2912C119.846 97.1968 120.013 97.1464 120.184 97.1461H124.41C124.584 97.146 124.754 97.1978 124.898 97.295C125.042 97.3922 125.154 97.5303 125.219 97.6915L125.943 99.4991C126.008 99.6603 126.119 99.7984 126.263 99.8955C126.407 99.9927 126.577 100.045 126.751 100.045H126.992C127.136 100.045 127.278 100.01 127.404 99.9424C127.531 99.8748 127.639 99.7769 127.719 99.6573C127.798 99.5378 127.847 99.4003 127.861 99.2573C127.874 99.1143 127.852 98.9702 127.796 98.8378L123.483 88.5134ZM123.037 95.4036H121.589C121.447 95.4034 121.307 95.3684 121.182 95.3018C121.056 95.2352 120.949 95.1389 120.869 95.0213C120.789 94.9038 120.74 94.7686 120.724 94.6274C120.709 94.4862 120.728 94.3434 120.78 94.2114L121.987 91.1681C122.162 90.8022 122.28 90.4115 122.337 90.0097H122.395C122.424 90.4096 122.522 90.8015 122.684 91.1681L123.855 94.221C123.906 94.3533 123.923 94.496 123.906 94.6366C123.889 94.7772 123.838 94.9116 123.758 95.0281C123.677 95.1445 123.569 95.2396 123.444 95.305C123.318 95.3705 123.178 95.4043 123.037 95.4036Z" fill="url(#paint21_linear_31_54)"/>
<path d="M140.792 98.6062L138.454 95.8742C138.364 95.7705 138.3 95.647 138.268 95.5139C138.235 95.3808 138.235 95.2419 138.267 95.1086C138.298 94.9753 138.361 94.8514 138.45 94.747C138.538 94.6427 138.65 94.5608 138.777 94.5082C140.075 93.9885 140.731 92.9669 140.744 91.4432C140.744 91.4167 140.744 91.3853 140.744 91.3588C140.612 89.1819 139.202 88.0556 136.513 87.98H131.752C131.521 87.98 131.3 88.0716 131.137 88.2345C130.974 88.3974 130.883 88.6184 130.883 88.8488V99.1733C130.883 99.4037 130.974 99.6247 131.137 99.7876C131.3 99.9506 131.521 100.042 131.752 100.042H131.993C132.224 100.042 132.445 99.9507 132.608 99.7878C132.771 99.6249 132.864 99.4039 132.864 99.1733V95.809C132.864 95.5784 132.956 95.3572 133.119 95.1938C133.281 95.0305 133.502 94.9384 133.733 94.9378H134.879C135.01 94.9381 135.139 94.9677 135.257 95.0245C135.375 95.0813 135.478 95.1639 135.56 95.266L139.098 99.7139C139.179 99.8164 139.283 99.8993 139.401 99.9561C139.518 100.013 139.648 100.042 139.779 100.042H140.138C140.304 100.04 140.465 99.9914 140.604 99.9011C140.743 99.8107 140.853 99.6827 140.922 99.5321C140.99 99.3814 141.015 99.2143 140.992 99.0503C140.969 98.8863 140.899 98.7322 140.792 98.6062ZM133.726 93.1398C133.495 93.1398 133.274 93.0483 133.111 92.8854C132.948 92.7224 132.857 92.5014 132.857 92.271V90.6468C132.857 90.4164 132.948 90.1954 133.111 90.0325C133.274 89.8695 133.495 89.778 133.726 89.778H136.161C137.825 89.8166 138.676 90.3387 138.714 91.3443C138.753 92.5413 137.902 93.1398 136.161 93.1398H133.726Z" fill="url(#paint22_linear_31_54)"/>
<path d="M63.7858 67.1936C50.3264 63.349 40.4412 50.937 40.4412 36.2564C40.4412 18.5204 54.8708 4.09076 72.6068 4.09076C85.9455 4.09076 99.2337 10.8603 105.004 21.7616C101.673 14.3243 95.8815 8.26143 88.6046 4.59302C81.3277 0.924618 73.0094 -0.125409 65.0492 1.6196C57.0889 3.36462 49.9727 7.79817 44.8977 14.1743C39.8228 20.5504 37.0989 28.48 37.1843 36.6288C37.2698 44.7776 40.1594 52.6483 45.3669 58.9166C50.5744 65.1849 57.7821 69.4683 65.7772 71.046C73.7722 72.6237 82.0667 71.3995 89.2651 67.5793C96.4634 63.7591 102.126 57.5761 105.301 50.0706C107.154 45.6437 108.106 40.8915 108.1 36.0923C108.1 53.8282 90.3548 68.4316 72.6237 68.4316C70.5481 68.4244 64.8694 67.5339 63.7858 67.1936Z" fill="url(#paint23_linear_31_54)"/>
<path d="M111.39 27.1072C111.004 25.9415 110.169 25.1934 109.162 24.5876C108.164 24.0148 107.078 23.6127 105.948 23.3978L104.531 23.0962L104.42 23.072C102.904 22.751 101.386 22.4373 99.8562 22.1935C98.3262 21.9498 96.7309 21.8484 95.1622 21.7495C93.0384 21.6143 90.9098 21.5081 88.7788 21.4599C87.1305 21.4285 85.4749 21.4816 83.8265 21.5781C82.0575 21.6843 80.2909 21.8726 78.5171 22.0608C77.2742 22.1863 76.0361 22.3552 74.7981 22.5169C73.7675 22.6521 72.7394 22.8065 71.6607 22.9562C71.4193 22.5483 71.178 22.1163 70.9173 21.6867C70.8771 21.637 70.8472 21.5798 70.8293 21.5184C70.8114 21.457 70.8059 21.3926 70.8131 21.3291C70.8203 21.2655 70.84 21.2041 70.8712 21.1482C70.9023 21.0923 70.9443 21.0432 70.9946 21.0037C71.6462 20.3738 72.2688 19.7174 72.9253 19.0948C74.1006 17.9749 75.3387 16.9227 76.2533 15.5495C77.016 14.3911 77.5179 13.1626 77.2501 11.7339C77.1222 11.0485 76.8374 10.4307 76.2316 10.059C74.7836 9.15884 73.227 9.15643 71.721 9.8732C69.5876 10.8868 68.6657 12.7693 68.5836 15.0041C68.4922 16.8659 68.8935 18.719 69.7469 20.3763C69.7975 20.4605 69.818 20.5595 69.8048 20.6569C69.7917 20.7543 69.7457 20.8443 69.6745 20.912C69.1918 21.5202 68.767 22.1646 68.2892 22.7703C68.0567 23.1205 67.7583 23.4222 67.4107 23.6585C67.0366 23.8588 66.5539 23.8491 66.1292 23.9674C64.1985 24.5104 62.2678 25.022 60.3539 25.6302C58.3677 26.2649 56.3888 26.9431 54.446 27.7033C51.4815 28.8515 48.6495 30.3161 45.9991 32.0715C45.1365 32.6137 44.3665 33.2908 43.7185 34.0771C43.3589 34.538 43.2648 35.2524 43.5158 35.6506C43.6792 35.8724 43.9074 36.0379 44.1689 36.1244C44.4305 36.2109 44.7125 36.214 44.9759 36.1333C45.4801 35.9672 45.9579 35.7299 46.3949 35.4286C47.563 34.5477 48.678 33.5944 49.8316 32.6918C51.4061 31.4586 53.1046 30.3926 54.8997 29.5109C56.5094 28.7218 58.1167 27.9109 59.7723 27.2255C61.4617 26.5256 63.2162 25.956 64.949 25.3503C65.5645 25.1355 66.2016 24.9786 66.9377 24.7638C66.2643 25.7702 65.6586 26.6655 65.0649 27.5706C64.2178 28.8593 63.3514 30.1336 62.5574 31.4561C62.2098 32.0305 61.9613 32.6869 62.2002 33.4085C62.4005 34.0119 62.958 34.2098 63.4262 34.4801C64.5291 35.1196 65.6682 35.7013 66.7808 36.3287C67.2997 36.6208 67.7461 37.0697 67.7172 37.6802C67.6569 38.4139 67.3635 39.1091 66.8797 39.664C66.0206 40.7477 64.9732 41.6382 63.9499 42.5601C63.1366 43.2962 62.4705 44.1602 62.2774 45.2921C62.0843 46.4239 62.497 47.2952 63.3924 47.7996C64.2878 48.304 65.2676 48.1881 66.1509 47.7392C67.0342 47.2903 67.8861 46.7208 68.7453 46.1947C69.3004 45.852 69.8772 45.531 70.5408 45.5527C71.5062 45.5817 72.2109 46.0909 72.7008 46.9066C73.5214 48.2726 73.5793 49.8027 73.4442 51.3014C73.2197 53.7944 72.5078 56.1909 71.5979 58.5174C71.0919 59.8049 70.5084 61.0605 69.8506 62.2775C69.2061 63.4374 68.4987 64.5613 67.7317 65.6441C67.3697 66.1654 66.9642 66.6602 66.5588 67.1525C66.3054 67.459 66.0544 67.7655 65.8106 68.0793C65.4703 68.5185 65.1904 69.006 65.4945 69.5659C65.6079 69.771 65.8613 69.8989 66.052 70.0631L67.0028 69.9907C67.2538 69.8583 67.488 69.6962 67.7003 69.508C68.2481 68.8781 68.7984 68.2482 69.3052 67.5773C69.3897 67.4663 69.4765 67.3528 69.5465 67.2394C70.6954 65.6654 71.6477 63.9569 72.3823 62.152C73.3476 59.7772 73.9292 57.2842 74.5205 54.7984C75.0322 52.6529 75.5341 50.505 76.0603 48.3619C76.8056 45.1814 77.8563 42.0803 79.1977 39.1017C79.719 37.9771 80.2668 36.8766 81.2249 36.0295C82.3375 35.0497 83.9544 35.3634 84.2778 36.7028C84.4454 37.3657 84.4888 38.0538 84.4058 38.7325C84.2299 39.7099 83.9994 40.6768 83.7155 41.6285C83.4476 42.6711 83.0181 43.6727 83.1798 44.8021C83.2443 45.2869 83.4433 45.744 83.7543 46.1215C84.0652 46.4989 84.4757 46.7818 84.9391 46.938C86.3413 47.3507 87.5938 46.9742 88.7088 46.1367C90.1569 45.0652 91.1222 43.6003 92.0007 42.075C92.6595 40.9311 93.2532 39.7485 93.8566 38.5732C94.5758 37.1799 95.2821 35.7809 95.9755 34.3763C96.1493 34.0215 96.4003 33.9612 96.7454 33.9805C97.2589 34.0259 97.775 34.0364 98.29 34.0119C99.8683 33.8816 101.444 33.7078 103.023 33.5678C104.455 33.4179 105.871 33.1434 107.256 32.7473C108.668 32.366 109.91 31.7481 110.811 30.5583C111.196 30.0818 111.452 29.5136 111.554 28.9089C111.655 28.3042 111.599 27.6836 111.39 27.1072ZM70.063 13.6043C70.4347 12.4145 71.1587 11.495 72.4764 11.2561C73.4852 11.0702 74.3226 11.5867 74.3226 12.68C74.3226 13.9084 73.8592 15.0113 73.2197 16.0008C72.3461 17.3523 71.3373 18.6145 70.3236 20.0094C69.5634 17.8036 69.4066 15.7088 70.063 13.6043ZM70.4757 21.9667C70.6277 22.208 70.8449 22.57 71.1008 22.99L69.2955 23.2554L70.4757 21.9667ZM90.3741 41.2279C89.724 42.1153 88.9136 42.8733 87.9848 43.4627C87.7006 43.632 87.4008 43.7734 87.0894 43.8851C86.3292 44.1578 85.5738 43.7282 85.5642 42.9197C85.5771 42.1322 85.6635 41.3477 85.8224 40.5763C86.0251 39.3889 86.392 38.2184 86.4933 37.0238C86.6985 34.6104 84.7871 33.3748 82.5837 33.9516C81.2563 34.2991 80.3537 35.2379 79.5548 36.2853C78.143 38.134 77.1873 40.2312 76.3137 42.3694C75.9275 43.3155 75.5896 44.276 75.1842 45.2173C75.0458 45.519 74.8636 45.7988 74.6436 46.0474C74.3106 46.4384 74.0523 46.3853 73.8448 45.9147C73.6565 45.4948 73.4997 45.058 73.28 44.6549C72.5029 43.2286 71.3083 42.688 69.7565 43.2069C68.7574 43.5424 67.8258 44.0878 66.8604 44.5367C66.5963 44.6814 66.3211 44.8048 66.0375 44.9059C65.5765 45.0362 65.2314 44.7249 65.4245 44.3026C65.6825 43.6809 66.0377 43.1042 66.4767 42.5939C67.3769 41.6285 68.4074 40.7766 69.3173 39.8064C69.9528 39.1408 70.507 38.402 70.968 37.6054C71.692 36.3312 71.2962 35.1631 70.0027 34.468C69.0928 33.9853 68.1347 33.5654 67.2152 33.0827C66.8068 32.8693 66.4266 32.6058 66.0833 32.2984C65.7583 32.0373 65.525 31.6793 65.4174 31.2766C65.3097 30.8738 65.3334 30.4472 65.4848 30.0588C66.193 28.1504 67.1186 26.33 68.2433 24.6335C68.3324 24.5256 68.4576 24.4535 68.5957 24.4308C69.5272 24.2497 70.4612 24.0687 71.4 23.9239C71.4994 23.9136 71.5998 23.9253 71.694 23.9583C71.7883 23.9912 71.8742 24.0446 71.9454 24.1146C74.9332 27.9205 78.8984 30.2156 83.4163 31.6709C86.795 32.7545 90.2027 33.5799 93.7311 33.9009C94.1727 33.9419 94.6192 33.966 95.0633 34.0022C95.0826 34.0022 95.1019 34.0384 95.1212 34.0577C93.7517 36.5821 92.1632 38.9814 90.3741 41.2279ZM106.966 29.7909C106.85 29.8906 106.732 29.9848 106.611 30.0733C105.744 30.6734 104.791 31.1404 103.785 31.4585C101.822 32.1487 99.7576 32.5036 97.677 32.5084C97.6051 32.5084 97.5334 32.5036 97.4622 32.4939C97.438 32.4939 97.4163 32.4649 97.3222 32.4022L100.86 27.8602L100.773 27.754C100.629 27.8347 100.49 27.925 100.358 28.0243C98.9285 29.2871 97.6402 30.7016 96.5161 32.2429C96.4702 32.3086 96.411 32.364 96.3425 32.4055C96.2739 32.4471 96.1974 32.4739 96.1179 32.4842C91.5639 32.4022 87.0629 31.9533 82.7043 30.5318C79.4149 29.4554 76.4295 27.8385 73.8906 25.4637C73.3573 24.9665 72.8915 24.3994 72.3099 23.7743C73.0339 23.6392 73.6107 23.4871 74.202 23.4244C76.2533 23.1999 78.3047 22.9586 80.3609 22.8162C83.8969 22.5738 87.4457 22.5867 90.9798 22.8548C95.8356 23.2216 100.597 24.0881 105.204 25.6954C105.339 25.7412 105.475 25.7943 105.607 25.8522C106.055 26.0454 106.479 26.2883 106.872 26.5763C108.156 27.5078 108.168 28.758 106.966 29.7909Z" fill="url(#paint24_linear_31_54)"/>
<defs>
<linearGradient id="paint0_linear_31_54" x1="-4.24277" y1="110.393" x2="140.722" y2="110.393" gradientUnits="userSpaceOnUse">
<stop stop-color="#8B6F4A"/>
<stop offset="0.04" stop-color="#8B6F4A"/>
<stop offset="1" stop-color="#CDAD8B"/>
</linearGradient>
<linearGradient id="paint1_linear_31_54" x1="-4.24284" y1="111.38" x2="140.722" y2="111.38" gradientUnits="userSpaceOnUse">
<stop stop-color="#8B6F4A"/>
<stop offset="0.04" stop-color="#8B6F4A"/>
<stop offset="1" stop-color="#CDAD8B"/>
</linearGradient>
<linearGradient id="paint2_linear_31_54" x1="-4.24272" y1="111.32" x2="140.722" y2="111.32" gradientUnits="userSpaceOnUse">
<stop stop-color="#8B6F4A"/>
<stop offset="0.04" stop-color="#8B6F4A"/>
<stop offset="1" stop-color="#CDAD8B"/>
</linearGradient>
<linearGradient id="paint3_linear_31_54" x1="-4.24285" y1="111.38" x2="140.722" y2="111.38" gradientUnits="userSpaceOnUse">
<stop stop-color="#8B6F4A"/>
<stop offset="0.04" stop-color="#8B6F4A"/>
<stop offset="1" stop-color="#CDAD8B"/>
</linearGradient>
<linearGradient id="paint4_linear_31_54" x1="-4.24268" y1="111.38" x2="140.722" y2="111.38" gradientUnits="userSpaceOnUse">
<stop stop-color="#8B6F4A"/>
<stop offset="0.04" stop-color="#8B6F4A"/>
<stop offset="1" stop-color="#CDAD8B"/>
</linearGradient>
<linearGradient id="paint5_linear_31_54" x1="-4.24278" y1="110.393" x2="140.722" y2="110.393" gradientUnits="userSpaceOnUse">
<stop stop-color="#8B6F4A"/>
<stop offset="0.04" stop-color="#8B6F4A"/>
<stop offset="1" stop-color="#CDAD8B"/>
</linearGradient>
<linearGradient id="paint6_linear_31_54" x1="-4.24282" y1="111.38" x2="140.722" y2="111.38" gradientUnits="userSpaceOnUse">
<stop stop-color="#8B6F4A"/>
<stop offset="0.04" stop-color="#8B6F4A"/>
<stop offset="1" stop-color="#CDAD8B"/>
</linearGradient>
<linearGradient id="paint7_linear_31_54" x1="-4.24284" y1="111.38" x2="140.722" y2="111.38" gradientUnits="userSpaceOnUse">
<stop stop-color="#8B6F4A"/>
<stop offset="0.04" stop-color="#8B6F4A"/>
<stop offset="1" stop-color="#CDAD8B"/>
</linearGradient>
<linearGradient id="paint8_linear_31_54" x1="-4.24287" y1="110.453" x2="140.722" y2="110.453" gradientUnits="userSpaceOnUse">
<stop stop-color="#8B6F4A"/>
<stop offset="0.04" stop-color="#8B6F4A"/>
<stop offset="1" stop-color="#CDAD8B"/>
</linearGradient>
<linearGradient id="paint9_linear_31_54" x1="-4.2428" y1="111.38" x2="140.722" y2="111.38" gradientUnits="userSpaceOnUse">
<stop stop-color="#8B6F4A"/>
<stop offset="0.04" stop-color="#8B6F4A"/>
<stop offset="1" stop-color="#CDAD8B"/>
</linearGradient>
<linearGradient id="paint10_linear_31_54" x1="-4.24278" y1="111.32" x2="140.722" y2="111.32" gradientUnits="userSpaceOnUse">
<stop stop-color="#8B6F4A"/>
<stop offset="0.04" stop-color="#8B6F4A"/>
<stop offset="1" stop-color="#CDAD8B"/>
</linearGradient>
<linearGradient id="paint11_linear_31_54" x1="-4.24279" y1="112.367" x2="140.722" y2="112.367" gradientUnits="userSpaceOnUse">
<stop stop-color="#8B6F4A"/>
<stop offset="0.04" stop-color="#8B6F4A"/>
<stop offset="1" stop-color="#CDAD8B"/>
</linearGradient>
<linearGradient id="paint12_linear_31_54" x1="-4.24273" y1="94.04" x2="140.722" y2="94.04" gradientUnits="userSpaceOnUse">
<stop stop-color="#8B6F4A"/>
<stop offset="0.04" stop-color="#8B6F4A"/>
<stop offset="1" stop-color="#CDAD8B"/>
</linearGradient>
<linearGradient id="paint13_linear_31_54" x1="-4.24274" y1="94.0111" x2="140.722" y2="94.0111" gradientUnits="userSpaceOnUse">
<stop stop-color="#8B6F4A"/>
<stop offset="0.04" stop-color="#8B6F4A"/>
<stop offset="1" stop-color="#CDAD8B"/>
</linearGradient>
<linearGradient id="paint14_linear_31_54" x1="-4.2427" y1="94.0111" x2="140.722" y2="94.0111" gradientUnits="userSpaceOnUse">
<stop stop-color="#8B6F4A"/>
<stop offset="0.04" stop-color="#8B6F4A"/>
<stop offset="1" stop-color="#CDAD8B"/>
</linearGradient>
<linearGradient id="paint15_linear_31_54" x1="-4.24289" y1="94.04" x2="140.722" y2="94.04" gradientUnits="userSpaceOnUse">
<stop stop-color="#8B6F4A"/>
<stop offset="0.04" stop-color="#8B6F4A"/>
<stop offset="1" stop-color="#CDAD8B"/>
</linearGradient>
<linearGradient id="paint16_linear_31_54" x1="151.923" y1="166.567" x2="296.887" y2="166.567" gradientUnits="userSpaceOnUse">
<stop stop-color="#8B6F4A"/>
<stop offset="0.04" stop-color="#8B6F4A"/>
<stop offset="1" stop-color="#CDAD8B"/>
</linearGradient>
<linearGradient id="paint17_linear_31_54" x1="-4.24265" y1="94.04" x2="140.722" y2="94.04" gradientUnits="userSpaceOnUse">
<stop stop-color="#8B6F4A"/>
<stop offset="0.04" stop-color="#8B6F4A"/>
<stop offset="1" stop-color="#CDAD8B"/>
</linearGradient>
<linearGradient id="paint18_linear_31_54" x1="-4.24275" y1="94.0111" x2="140.722" y2="94.0111" gradientUnits="userSpaceOnUse">
<stop stop-color="#8B6F4A"/>
<stop offset="0.04" stop-color="#8B6F4A"/>
<stop offset="1" stop-color="#CDAD8B"/>
</linearGradient>
<linearGradient id="paint19_linear_31_54" x1="-4.24269" y1="94.0135" x2="140.722" y2="94.0135" gradientUnits="userSpaceOnUse">
<stop stop-color="#8B6F4A"/>
<stop offset="0.04" stop-color="#8B6F4A"/>
<stop offset="1" stop-color="#CDAD8B"/>
</linearGradient>
<linearGradient id="paint20_linear_31_54" x1="-4.24271" y1="94.04" x2="140.722" y2="94.04" gradientUnits="userSpaceOnUse">
<stop stop-color="#8B6F4A"/>
<stop offset="0.04" stop-color="#8B6F4A"/>
<stop offset="1" stop-color="#CDAD8B"/>
</linearGradient>
<linearGradient id="paint21_linear_31_54" x1="-4.24279" y1="94.0111" x2="140.722" y2="94.0111" gradientUnits="userSpaceOnUse">
<stop stop-color="#8B6F4A"/>
<stop offset="0.04" stop-color="#8B6F4A"/>
<stop offset="1" stop-color="#CDAD8B"/>
</linearGradient>
<linearGradient id="paint22_linear_31_54" x1="-4.24271" y1="94.0111" x2="140.722" y2="94.0111" gradientUnits="userSpaceOnUse">
<stop stop-color="#8B6F4A"/>
<stop offset="0.04" stop-color="#8B6F4A"/>
<stop offset="1" stop-color="#CDAD8B"/>
</linearGradient>
<linearGradient id="paint23_linear_31_54" x1="37.1252" y1="36.2564" x2="108.091" y2="36.2564" gradientUnits="userSpaceOnUse">
<stop stop-color="#8B6F4A"/>
<stop offset="0.04" stop-color="#8B6F4A"/>
<stop offset="1" stop-color="#CDAD8B"/>
</linearGradient>
<linearGradient id="paint24_linear_31_54" x1="43.3854" y1="39.7051" x2="111.6" y2="39.7051" gradientUnits="userSpaceOnUse">
<stop stop-color="#8B6F4A"/>
<stop offset="0.04" stop-color="#8B6F4A"/>
<stop offset="1" stop-color="#CDAD8B"/>
</linearGradient>
</defs>
</svg>
